<svg width="36" height="36" viewBox="0 0 36 36" fill="none" xmlns="http://www.w3.org/2000/svg">
<path fill-rule="evenodd" clip-rule="evenodd" d="M18 36C27.9411 36 36 27.9411 36 18C36 8.05887 27.9411 0 18 0C8.05887 0 0 8.05887 0 18C0 27.9411 8.05887 36 18 36ZM29.7044 23.0151C29.7044 23.0151 28.0372 25.7869 23.7024 25.9207C23.7024 25.9207 22.9963 25.0987 22.4079 24.3723C24.9773 23.665 25.9581 22.0975 25.9581 22.0975C25.1539 22.6137 24.3889 22.9769 23.7024 23.2254C22.7217 23.6268 21.7802 23.8944 20.8583 24.0473C18.9754 24.3914 17.2493 24.2958 15.7783 24.0282C14.6602 23.8179 13.6991 23.5121 12.895 23.2062C12.4438 23.0342 11.9535 22.8239 11.4631 22.5563L11.3863 22.5133L11.3634 22.5037L11.2866 22.4607L11.2081 22.4034L10.6589 22.0784C10.6589 22.0784 11.6004 23.6077 14.0914 24.3341C13.503 25.0605 12.7773 25.9207 12.7773 25.9207C8.44252 25.7869 6.79492 23.0151 6.79492 23.0151C6.79492 16.8598 9.61938 11.8706 9.61938 11.8706C12.4438 9.80609 15.131 9.86344 15.131 9.86344L15.3271 10.0928C11.7966 11.0868 10.1686 12.597 10.1686 12.597C10.1686 12.597 10.6001 12.3676 11.3258 12.0426C13.4245 11.1442 15.0918 10.8957 15.7783 10.8383L16.1117 10.8001C17.3082 10.6472 18.6616 10.609 20.0738 10.7619C21.9371 10.9722 23.9378 11.5074 25.9777 12.597C25.9777 12.597 24.4281 11.1633 21.0937 10.1693L21.3683 9.86344C21.3683 9.86344 24.0555 9.80609 26.8799 11.8706C26.8799 11.8706 29.7044 16.8598 29.7044 23.0151ZM12.5811 19.1155C12.5811 17.9494 13.4638 16.9936 14.5818 16.9936C15.6998 16.9936 16.6021 17.9494 16.5824 19.1155C16.5824 20.2815 15.6998 21.2373 14.5818 21.2373C13.4834 21.2373 12.5811 20.2815 12.5811 19.1155ZM19.7403 19.1155C19.7403 17.9494 20.623 16.9936 21.741 16.9936C22.859 16.9936 23.7416 17.9494 23.7416 19.1155C23.7416 20.2815 22.859 21.2373 21.741 21.2373C20.6426 21.2373 19.7403 20.2815 19.7403 19.1155Z" fill="#F6F6F6"/>
</svg>
