<svg width="36" height="36" viewBox="0 0 36 36" fill="none" xmlns="http://www.w3.org/2000/svg">
<path d="M18 36C27.9411 36 36 27.9411 36 18C36 8.05887 27.9411 0 18 0C8.05887 0 0 8.05887 0 18C0 27.9411 8.05887 36 18 36Z" fill="#F5BC41"/>
<path d="M29.3437 13.4783C29.3437 11.4342 28.0901 9.6831 26.3098 8.9514L26.1408 8.88434L26.677 7.95596C26.8317 7.68808 26.6384 7.35352 26.3289 7.35352H21.5986C21.2895 7.35352 21.0962 7.68845 21.2505 7.95596L23.6157 12.0524C23.7704 12.3203 24.1571 12.3203 24.3114 12.0524L24.9071 11.0206L25.4691 11.266C26.3165 11.6478 26.9062 12.4956 26.9062 13.4806C26.9062 13.8556 26.8208 14.2104 26.6683 14.5277L21.1149 26.424H21.1153C21.0654 26.5278 20.992 26.6233 20.8953 26.7024C20.5994 26.9448 20.164 26.9444 19.868 26.7016C19.8253 26.6668 19.7875 26.6286 19.7538 26.5878L15.1538 20.9481L13.8691 23.2125L17.9442 28.219C18.5403 28.8964 19.4136 29.3235 20.3869 29.3235C21.7259 29.3235 22.8761 28.5146 23.3752 27.3584L28.8822 15.5569C29.1781 14.926 29.3437 14.2216 29.3437 13.4783Z" fill="#1F1F1F"/>
<path d="M9.77789 23.6272C9.7719 23.6272 9.76591 23.6268 9.75991 23.6268C8.41042 23.6268 7.31643 24.7208 7.31643 26.0703C7.31643 27.4198 8.41042 28.5138 9.75991 28.5138C11.1094 28.5138 12.2034 27.4198 12.2034 26.0703C12.2034 25.6278 12.0857 25.2127 11.8801 24.8549L17.2233 15.0076L17.2241 15.008C17.232 14.9941 17.2395 14.9799 17.2469 14.966L17.2511 14.9592C17.6894 14.1526 17.9386 13.2284 17.9386 12.2456C17.9386 9.10269 15.3905 6.55469 12.2476 6.55469C9.10464 6.55469 6.55664 9.10269 6.55664 12.2456C6.55664 13.6581 7.07104 14.9503 7.92299 15.9453L10.8268 19.5023L12.1193 17.2544L9.76028 14.3684C9.29085 13.8046 8.98738 13.0373 8.98738 12.246C8.98738 10.4496 10.4436 8.9933 12.2401 8.9933C14.0366 8.9933 15.4928 10.4496 15.4928 12.246C15.4928 12.8275 15.3403 13.3733 15.0728 13.8458L15.0713 13.8484L9.77789 23.6272Z" fill="#1F1F1F"/>
</svg>
